<mxfile host="app.diagrams.net" agent="Mozilla/5.0 (Windows NT 10.0; Win64; x64) AppleWebKit/537.36 (KHTML, like Gecko) Chrome/131.0.0.0 Safari/537.36" version="24.8.6" pages="3">
  <diagram id="C5RBs43oDa-KdzZeNtuy" name="Page-1">
    <mxGraphModel dx="1193" dy="698" grid="1" gridSize="10" guides="1" tooltips="1" connect="1" arrows="1" fold="1" page="1" pageScale="1" pageWidth="827" pageHeight="1169" math="0" shadow="0">
      <root>
        <mxCell id="WIyWlLk6GJQsqaUBKTNV-0" />
        <mxCell id="WIyWlLk6GJQsqaUBKTNV-1" parent="WIyWlLk6GJQsqaUBKTNV-0" />
        <mxCell id="IdFYATCdx1y-YoX4mkcr-62" value="" style="swimlane;startSize=0;swimlaneFillColor=#F7CD8A;fillColor=none;opacity=40;strokeColor=none;" parent="WIyWlLk6GJQsqaUBKTNV-1" vertex="1">
          <mxGeometry x="460" y="20" width="480" height="420" as="geometry" />
        </mxCell>
        <mxCell id="IdFYATCdx1y-YoX4mkcr-64" value="Model 2" style="text;html=1;align=center;verticalAlign=middle;resizable=0;points=[];autosize=1;strokeColor=none;fillColor=none;" parent="IdFYATCdx1y-YoX4mkcr-62" vertex="1">
          <mxGeometry x="410" width="70" height="30" as="geometry" />
        </mxCell>
        <mxCell id="IdFYATCdx1y-YoX4mkcr-9" value="" style="swimlane;startSize=0;fillStyle=auto;opacity=40;fillColor=none;separatorColor=#F7CD8A;swimlaneFillColor=#F7CD8A;gradientColor=none;strokeColor=none;" parent="WIyWlLk6GJQsqaUBKTNV-1" vertex="1">
          <mxGeometry x="130" y="309" width="310" height="270" as="geometry">
            <mxRectangle x="130" y="309" width="50" height="40" as="alternateBounds" />
          </mxGeometry>
        </mxCell>
        <mxCell id="IdFYATCdx1y-YoX4mkcr-10" value="" style="strokeWidth=1;html=1;shape=mxgraph.flowchart.annotation_2;align=left;labelPosition=right;pointerEvents=1;" parent="IdFYATCdx1y-YoX4mkcr-9" vertex="1">
          <mxGeometry x="150" y="110" width="40" height="120" as="geometry" />
        </mxCell>
        <mxCell id="IdFYATCdx1y-YoX4mkcr-12" value="" style="line;strokeWidth=1;html=1;" parent="IdFYATCdx1y-YoX4mkcr-9" vertex="1">
          <mxGeometry x="170" y="144" width="20" height="10" as="geometry" />
        </mxCell>
        <mxCell id="IdFYATCdx1y-YoX4mkcr-13" value="" style="line;strokeWidth=1;html=1;" parent="IdFYATCdx1y-YoX4mkcr-9" vertex="1">
          <mxGeometry x="170" y="185" width="20" height="10" as="geometry" />
        </mxCell>
        <mxCell id="IdFYATCdx1y-YoX4mkcr-14" value="English" style="text;html=1;align=center;verticalAlign=middle;resizable=0;points=[];autosize=1;strokeColor=none;fillColor=none;" parent="IdFYATCdx1y-YoX4mkcr-9" vertex="1">
          <mxGeometry x="190" y="95" width="60" height="30" as="geometry" />
        </mxCell>
        <mxCell id="IdFYATCdx1y-YoX4mkcr-15" value="French" style="text;html=1;align=center;verticalAlign=middle;resizable=0;points=[];autosize=1;strokeColor=none;fillColor=none;" parent="IdFYATCdx1y-YoX4mkcr-9" vertex="1">
          <mxGeometry x="190" y="134" width="60" height="30" as="geometry" />
        </mxCell>
        <mxCell id="IdFYATCdx1y-YoX4mkcr-16" value="German" style="text;html=1;align=center;verticalAlign=middle;resizable=0;points=[];autosize=1;strokeColor=none;fillColor=none;" parent="IdFYATCdx1y-YoX4mkcr-9" vertex="1">
          <mxGeometry x="185" y="175" width="70" height="30" as="geometry" />
        </mxCell>
        <mxCell id="IdFYATCdx1y-YoX4mkcr-17" value="... ..." style="text;html=1;align=center;verticalAlign=middle;resizable=0;points=[];autosize=1;strokeColor=none;fillColor=none;" parent="IdFYATCdx1y-YoX4mkcr-9" vertex="1">
          <mxGeometry x="195" y="212" width="50" height="30" as="geometry" />
        </mxCell>
        <mxCell id="IdFYATCdx1y-YoX4mkcr-18" value="" style="strokeWidth=1;html=1;shape=mxgraph.flowchart.annotation_2;align=left;labelPosition=right;pointerEvents=1;rotation=-180;" parent="IdFYATCdx1y-YoX4mkcr-9" vertex="1">
          <mxGeometry x="250" y="110" width="40" height="120" as="geometry" />
        </mxCell>
        <mxCell id="IdFYATCdx1y-YoX4mkcr-41" value="Model 1" style="text;html=1;align=center;verticalAlign=middle;resizable=0;points=[];autosize=1;strokeColor=none;fillColor=none;" parent="IdFYATCdx1y-YoX4mkcr-9" vertex="1">
          <mxGeometry y="240" width="70" height="30" as="geometry" />
        </mxCell>
        <mxCell id="WIyWlLk6GJQsqaUBKTNV-2" value="" style="rounded=0;html=1;jettySize=auto;orthogonalLoop=1;fontSize=11;endArrow=block;endFill=0;endSize=8;strokeWidth=1;shadow=0;labelBackgroundColor=none;edgeStyle=orthogonalEdgeStyle;" parent="WIyWlLk6GJQsqaUBKTNV-1" source="WIyWlLk6GJQsqaUBKTNV-3" edge="1">
          <mxGeometry relative="1" as="geometry">
            <mxPoint x="220" y="249" as="targetPoint" />
          </mxGeometry>
        </mxCell>
        <mxCell id="WIyWlLk6GJQsqaUBKTNV-3" value="Structured Data" style="rounded=1;whiteSpace=wrap;html=1;fontSize=12;glass=0;strokeWidth=1;shadow=0;fillColor=#B8E0D5;" parent="WIyWlLk6GJQsqaUBKTNV-1" vertex="1">
          <mxGeometry x="160" y="159" width="120" height="40" as="geometry" />
        </mxCell>
        <mxCell id="WIyWlLk6GJQsqaUBKTNV-5" value="" style="edgeStyle=orthogonalEdgeStyle;rounded=0;html=1;jettySize=auto;orthogonalLoop=1;fontSize=11;endArrow=block;endFill=0;endSize=8;strokeWidth=1;shadow=0;labelBackgroundColor=none;" parent="WIyWlLk6GJQsqaUBKTNV-1" edge="1">
          <mxGeometry y="10" relative="1" as="geometry">
            <mxPoint as="offset" />
            <mxPoint x="280" y="178" as="sourcePoint" />
            <mxPoint x="330" y="178" as="targetPoint" />
          </mxGeometry>
        </mxCell>
        <mxCell id="WIyWlLk6GJQsqaUBKTNV-7" value="Training Json" style="rounded=1;whiteSpace=wrap;html=1;fontSize=12;glass=0;strokeWidth=1;shadow=0;fillColor=#FFA700;" parent="WIyWlLk6GJQsqaUBKTNV-1" vertex="1">
          <mxGeometry x="640" y="40" width="120" height="40" as="geometry" />
        </mxCell>
        <mxCell id="WIyWlLk6GJQsqaUBKTNV-11" value="English Data" style="rounded=1;whiteSpace=wrap;html=1;fontSize=12;glass=0;strokeWidth=1;shadow=0;fillColor=#FFA700;" parent="WIyWlLk6GJQsqaUBKTNV-1" vertex="1">
          <mxGeometry x="480" y="230" width="120" height="40" as="geometry" />
        </mxCell>
        <mxCell id="WIyWlLk6GJQsqaUBKTNV-12" value="Unstructured&lt;div&gt;Data&lt;/div&gt;" style="rounded=1;whiteSpace=wrap;html=1;fontSize=12;glass=0;strokeWidth=1;shadow=0;fillColor=#B8E0D5;" parent="WIyWlLk6GJQsqaUBKTNV-1" vertex="1">
          <mxGeometry x="480" y="459" width="120" height="40" as="geometry" />
        </mxCell>
        <mxCell id="IdFYATCdx1y-YoX4mkcr-0" value="Organized Data" style="rounded=1;whiteSpace=wrap;html=1;fillColor=#B8E0D5;" parent="WIyWlLk6GJQsqaUBKTNV-1" vertex="1">
          <mxGeometry x="160" y="249" width="120" height="40" as="geometry" />
        </mxCell>
        <mxCell id="IdFYATCdx1y-YoX4mkcr-3" value="" style="rounded=0;html=1;jettySize=auto;orthogonalLoop=1;fontSize=11;endArrow=block;endFill=0;endSize=8;strokeWidth=1;shadow=0;labelBackgroundColor=none;edgeStyle=orthogonalEdgeStyle;" parent="WIyWlLk6GJQsqaUBKTNV-1" edge="1">
          <mxGeometry relative="1" as="geometry">
            <mxPoint x="220" y="289" as="sourcePoint" />
            <mxPoint x="220" y="339" as="targetPoint" />
          </mxGeometry>
        </mxCell>
        <mxCell id="IdFYATCdx1y-YoX4mkcr-4" value="Encoder" style="rhombus;whiteSpace=wrap;html=1;fillColor=#FF7540;" parent="WIyWlLk6GJQsqaUBKTNV-1" vertex="1">
          <mxGeometry x="160" y="339" width="120" height="60" as="geometry" />
        </mxCell>
        <mxCell id="IdFYATCdx1y-YoX4mkcr-5" value="Decoder" style="rhombus;whiteSpace=wrap;html=1;fillColor=#FF7540;" parent="WIyWlLk6GJQsqaUBKTNV-1" vertex="1">
          <mxGeometry x="160" y="449" width="120" height="60" as="geometry" />
        </mxCell>
        <mxCell id="IdFYATCdx1y-YoX4mkcr-6" value="" style="rounded=0;html=1;jettySize=auto;orthogonalLoop=1;fontSize=11;endArrow=block;endFill=0;endSize=8;strokeWidth=1;shadow=0;labelBackgroundColor=none;edgeStyle=orthogonalEdgeStyle;" parent="WIyWlLk6GJQsqaUBKTNV-1" edge="1">
          <mxGeometry relative="1" as="geometry">
            <mxPoint x="220" y="399" as="sourcePoint" />
            <mxPoint x="220" y="449" as="targetPoint" />
          </mxGeometry>
        </mxCell>
        <mxCell id="IdFYATCdx1y-YoX4mkcr-7" value="Data Wrangling" style="text;html=1;align=center;verticalAlign=middle;resizable=0;points=[];autosize=1;strokeColor=none;fillColor=none;" parent="WIyWlLk6GJQsqaUBKTNV-1" vertex="1">
          <mxGeometry x="216" y="209" width="110" height="30" as="geometry" />
        </mxCell>
        <mxCell id="IdFYATCdx1y-YoX4mkcr-8" value="&lt;font color=&quot;#ffffff&quot;&gt;Loss Function&lt;/font&gt;" style="rhombus;whiteSpace=wrap;html=1;fillColor=#0E5447;" parent="WIyWlLk6GJQsqaUBKTNV-1" vertex="1">
          <mxGeometry x="330" y="148" width="120" height="60" as="geometry" />
        </mxCell>
        <mxCell id="IdFYATCdx1y-YoX4mkcr-19" value="" style="rounded=0;html=1;jettySize=auto;orthogonalLoop=1;fontSize=11;endArrow=block;endFill=0;endSize=8;strokeWidth=1;shadow=0;labelBackgroundColor=none;edgeStyle=orthogonalEdgeStyle;exitX=0;exitY=0.5;exitDx=0;exitDy=0;" parent="WIyWlLk6GJQsqaUBKTNV-1" source="WIyWlLk6GJQsqaUBKTNV-7" edge="1">
          <mxGeometry relative="1" as="geometry">
            <mxPoint x="390" y="98" as="sourcePoint" />
            <mxPoint x="390" y="148" as="targetPoint" />
          </mxGeometry>
        </mxCell>
        <mxCell id="IdFYATCdx1y-YoX4mkcr-20" value="Format Constrain" style="rhombus;whiteSpace=wrap;html=1;fillColor=#FFA700;" parent="WIyWlLk6GJQsqaUBKTNV-1" vertex="1">
          <mxGeometry x="640" y="120" width="120" height="60" as="geometry" />
        </mxCell>
        <mxCell id="IdFYATCdx1y-YoX4mkcr-21" value="Entity&lt;div&gt;Recognization&lt;/div&gt;" style="rhombus;whiteSpace=wrap;html=1;fillColor=#FFA700;" parent="WIyWlLk6GJQsqaUBKTNV-1" vertex="1">
          <mxGeometry x="640" y="220" width="120" height="60" as="geometry" />
        </mxCell>
        <mxCell id="IdFYATCdx1y-YoX4mkcr-22" value="Translation" style="rhombus;whiteSpace=wrap;html=1;fillColor=#FFA700;" parent="WIyWlLk6GJQsqaUBKTNV-1" vertex="1">
          <mxGeometry x="640" y="360" width="120" height="60" as="geometry" />
        </mxCell>
        <mxCell id="IdFYATCdx1y-YoX4mkcr-23" value="Relation&lt;div&gt;Extraction&lt;/div&gt;" style="rounded=1;whiteSpace=wrap;html=1;fontSize=12;glass=0;strokeWidth=1;shadow=0;fillColor=#FFA700;" parent="WIyWlLk6GJQsqaUBKTNV-1" vertex="1">
          <mxGeometry x="800" y="229" width="120" height="40" as="geometry" />
        </mxCell>
        <mxCell id="IdFYATCdx1y-YoX4mkcr-24" value="" style="edgeStyle=orthogonalEdgeStyle;rounded=0;html=1;jettySize=auto;orthogonalLoop=1;fontSize=11;endArrow=block;endFill=0;endSize=8;strokeWidth=1;shadow=0;labelBackgroundColor=none;entryX=0.5;entryY=1;entryDx=0;entryDy=0;exitX=0.5;exitY=0;exitDx=0;exitDy=0;" parent="WIyWlLk6GJQsqaUBKTNV-1" source="IdFYATCdx1y-YoX4mkcr-20" target="WIyWlLk6GJQsqaUBKTNV-7" edge="1">
          <mxGeometry y="10" relative="1" as="geometry">
            <mxPoint as="offset" />
            <mxPoint x="290" y="188" as="sourcePoint" />
            <mxPoint x="340" y="188" as="targetPoint" />
            <Array as="points">
              <mxPoint x="700" y="100" />
              <mxPoint x="700" y="100" />
            </Array>
          </mxGeometry>
        </mxCell>
        <mxCell id="IdFYATCdx1y-YoX4mkcr-25" value="" style="edgeStyle=orthogonalEdgeStyle;rounded=0;html=1;jettySize=auto;orthogonalLoop=1;fontSize=11;endArrow=block;endFill=0;endSize=8;strokeWidth=1;shadow=0;labelBackgroundColor=none;entryX=0;entryY=0.5;entryDx=0;entryDy=0;exitX=1;exitY=0.5;exitDx=0;exitDy=0;" parent="WIyWlLk6GJQsqaUBKTNV-1" source="WIyWlLk6GJQsqaUBKTNV-11" target="IdFYATCdx1y-YoX4mkcr-21" edge="1">
          <mxGeometry y="10" relative="1" as="geometry">
            <mxPoint as="offset" />
            <mxPoint x="710" y="141" as="sourcePoint" />
            <mxPoint x="710" y="111" as="targetPoint" />
            <Array as="points" />
          </mxGeometry>
        </mxCell>
        <mxCell id="IdFYATCdx1y-YoX4mkcr-26" value="" style="edgeStyle=orthogonalEdgeStyle;rounded=0;html=1;jettySize=auto;orthogonalLoop=1;fontSize=11;endArrow=block;endFill=0;endSize=8;strokeWidth=1;shadow=0;labelBackgroundColor=none;entryX=0;entryY=0.5;entryDx=0;entryDy=0;exitX=1;exitY=0.5;exitDx=0;exitDy=0;" parent="WIyWlLk6GJQsqaUBKTNV-1" edge="1">
          <mxGeometry y="10" relative="1" as="geometry">
            <mxPoint as="offset" />
            <mxPoint x="760" y="250" as="sourcePoint" />
            <mxPoint x="800" y="250" as="targetPoint" />
            <Array as="points" />
          </mxGeometry>
        </mxCell>
        <mxCell id="IdFYATCdx1y-YoX4mkcr-27" value="" style="endArrow=none;html=1;rounded=0;entryX=0.5;entryY=1;entryDx=0;entryDy=0;exitX=0.5;exitY=0;exitDx=0;exitDy=0;" parent="WIyWlLk6GJQsqaUBKTNV-1" source="IdFYATCdx1y-YoX4mkcr-21" target="IdFYATCdx1y-YoX4mkcr-20" edge="1">
          <mxGeometry width="50" height="50" relative="1" as="geometry">
            <mxPoint x="390" y="320" as="sourcePoint" />
            <mxPoint x="440" y="270" as="targetPoint" />
          </mxGeometry>
        </mxCell>
        <mxCell id="IdFYATCdx1y-YoX4mkcr-28" value="" style="endArrow=none;html=1;rounded=0;entryX=0.5;entryY=1;entryDx=0;entryDy=0;" parent="WIyWlLk6GJQsqaUBKTNV-1" source="IdFYATCdx1y-YoX4mkcr-22" target="IdFYATCdx1y-YoX4mkcr-21" edge="1">
          <mxGeometry width="50" height="50" relative="1" as="geometry">
            <mxPoint x="710" y="230" as="sourcePoint" />
            <mxPoint x="710" y="201" as="targetPoint" />
          </mxGeometry>
        </mxCell>
        <mxCell id="IdFYATCdx1y-YoX4mkcr-29" value="" style="shape=partialRectangle;whiteSpace=wrap;html=1;bottom=1;right=1;left=1;top=0;fillColor=none;routingCenterX=-0.5;" parent="WIyWlLk6GJQsqaUBKTNV-1" vertex="1">
          <mxGeometry x="540" y="270" width="320" height="50" as="geometry" />
        </mxCell>
        <mxCell id="IdFYATCdx1y-YoX4mkcr-30" value="" style="endArrow=none;html=1;rounded=0;entryX=0;entryY=1;entryDx=0;entryDy=0;exitX=0.5;exitY=0;exitDx=0;exitDy=0;" parent="WIyWlLk6GJQsqaUBKTNV-1" source="WIyWlLk6GJQsqaUBKTNV-11" target="IdFYATCdx1y-YoX4mkcr-20" edge="1">
          <mxGeometry width="50" height="50" relative="1" as="geometry">
            <mxPoint x="710" y="209" as="sourcePoint" />
            <mxPoint x="710" y="180" as="targetPoint" />
          </mxGeometry>
        </mxCell>
        <mxCell id="IdFYATCdx1y-YoX4mkcr-31" value="" style="endArrow=none;html=1;rounded=0;entryX=1;entryY=1;entryDx=0;entryDy=0;exitX=0.5;exitY=0;exitDx=0;exitDy=0;" parent="WIyWlLk6GJQsqaUBKTNV-1" source="IdFYATCdx1y-YoX4mkcr-23" target="IdFYATCdx1y-YoX4mkcr-20" edge="1">
          <mxGeometry width="50" height="50" relative="1" as="geometry">
            <mxPoint x="550" y="219" as="sourcePoint" />
            <mxPoint x="680" y="165" as="targetPoint" />
          </mxGeometry>
        </mxCell>
        <mxCell id="IdFYATCdx1y-YoX4mkcr-32" value="Train Dataset" style="rounded=1;whiteSpace=wrap;html=1;fontSize=12;glass=0;strokeWidth=1;shadow=0;fillColor=#B8E0D5;" parent="WIyWlLk6GJQsqaUBKTNV-1" vertex="1">
          <mxGeometry x="640" y="459" width="120" height="40" as="geometry" />
        </mxCell>
        <mxCell id="IdFYATCdx1y-YoX4mkcr-33" value="Test Dataset" style="rounded=1;whiteSpace=wrap;html=1;fontSize=12;glass=0;strokeWidth=1;shadow=0;fillColor=#B8E0D5;" parent="WIyWlLk6GJQsqaUBKTNV-1" vertex="1">
          <mxGeometry x="640" y="539" width="120" height="40" as="geometry" />
        </mxCell>
        <mxCell id="IdFYATCdx1y-YoX4mkcr-34" value="&lt;font color=&quot;#ffffff&quot;&gt;Trained Model&lt;/font&gt;" style="rhombus;whiteSpace=wrap;html=1;fillColor=#0E5447;" parent="WIyWlLk6GJQsqaUBKTNV-1" vertex="1">
          <mxGeometry x="980" y="305" width="120" height="60" as="geometry" />
        </mxCell>
        <mxCell id="IdFYATCdx1y-YoX4mkcr-35" value="&lt;font color=&quot;#ffffff&quot;&gt;&lt;b&gt;Predicted Json&lt;/b&gt;&lt;/font&gt;" style="rounded=1;whiteSpace=wrap;html=1;fontSize=12;glass=0;strokeWidth=1;shadow=0;fillColor=#0E5447;" parent="WIyWlLk6GJQsqaUBKTNV-1" vertex="1">
          <mxGeometry x="1140" y="315" width="120" height="40" as="geometry" />
        </mxCell>
        <mxCell id="IdFYATCdx1y-YoX4mkcr-36" value="" style="edgeStyle=orthogonalEdgeStyle;rounded=0;html=1;jettySize=auto;orthogonalLoop=1;fontSize=11;endArrow=block;endFill=0;endSize=8;strokeWidth=1;shadow=0;labelBackgroundColor=none;entryX=0;entryY=0.5;entryDx=0;entryDy=0;exitX=0;exitY=0.5;exitDx=0;exitDy=0;exitPerimeter=0;" parent="WIyWlLk6GJQsqaUBKTNV-1" source="IdFYATCdx1y-YoX4mkcr-18" target="WIyWlLk6GJQsqaUBKTNV-12" edge="1">
          <mxGeometry y="10" relative="1" as="geometry">
            <mxPoint as="offset" />
            <mxPoint x="610" y="260" as="sourcePoint" />
            <mxPoint x="650" y="260" as="targetPoint" />
            <Array as="points" />
          </mxGeometry>
        </mxCell>
        <mxCell id="IdFYATCdx1y-YoX4mkcr-37" value="" style="edgeStyle=orthogonalEdgeStyle;rounded=0;html=1;jettySize=auto;orthogonalLoop=1;fontSize=11;endArrow=block;endFill=0;endSize=8;strokeWidth=1;shadow=0;labelBackgroundColor=none;entryX=0;entryY=0.5;entryDx=0;entryDy=0;exitX=1;exitY=0.5;exitDx=0;exitDy=0;" parent="WIyWlLk6GJQsqaUBKTNV-1" edge="1">
          <mxGeometry y="10" relative="1" as="geometry">
            <mxPoint as="offset" />
            <mxPoint x="600" y="479" as="sourcePoint" />
            <mxPoint x="640" y="479" as="targetPoint" />
            <Array as="points" />
          </mxGeometry>
        </mxCell>
        <mxCell id="IdFYATCdx1y-YoX4mkcr-38" value="" style="edgeStyle=orthogonalEdgeStyle;rounded=0;html=1;jettySize=auto;orthogonalLoop=1;fontSize=11;endArrow=block;endFill=0;endSize=8;strokeWidth=1;shadow=0;labelBackgroundColor=none;entryX=0;entryY=0.5;entryDx=0;entryDy=0;" parent="WIyWlLk6GJQsqaUBKTNV-1" target="IdFYATCdx1y-YoX4mkcr-33" edge="1">
          <mxGeometry y="10" relative="1" as="geometry">
            <mxPoint as="offset" />
            <mxPoint x="540" y="500" as="sourcePoint" />
            <mxPoint x="650" y="489" as="targetPoint" />
            <Array as="points">
              <mxPoint x="540" y="559" />
            </Array>
          </mxGeometry>
        </mxCell>
        <mxCell id="IdFYATCdx1y-YoX4mkcr-39" value="" style="edgeStyle=orthogonalEdgeStyle;rounded=0;html=1;jettySize=auto;orthogonalLoop=1;fontSize=11;endArrow=block;endFill=0;endSize=8;strokeWidth=1;shadow=0;labelBackgroundColor=none;entryX=0.5;entryY=1;entryDx=0;entryDy=0;exitX=1;exitY=0.5;exitDx=0;exitDy=0;" parent="WIyWlLk6GJQsqaUBKTNV-1" edge="1" target="IdFYATCdx1y-YoX4mkcr-34">
          <mxGeometry y="10" relative="1" as="geometry">
            <mxPoint as="offset" />
            <mxPoint x="760" y="559" as="sourcePoint" />
            <mxPoint x="800" y="559" as="targetPoint" />
            <Array as="points" />
          </mxGeometry>
        </mxCell>
        <mxCell id="IdFYATCdx1y-YoX4mkcr-40" value="" style="edgeStyle=orthogonalEdgeStyle;rounded=0;html=1;jettySize=auto;orthogonalLoop=1;fontSize=11;endArrow=block;endFill=0;endSize=8;strokeWidth=1;shadow=0;labelBackgroundColor=none;entryX=0;entryY=0.5;entryDx=0;entryDy=0;exitX=1;exitY=0.5;exitDx=0;exitDy=0;" parent="WIyWlLk6GJQsqaUBKTNV-1" edge="1" target="IdFYATCdx1y-YoX4mkcr-35" source="IdFYATCdx1y-YoX4mkcr-34">
          <mxGeometry y="10" relative="1" as="geometry">
            <mxPoint as="offset" />
            <mxPoint x="920" y="559" as="sourcePoint" />
            <mxPoint x="960" y="559" as="targetPoint" />
            <Array as="points" />
          </mxGeometry>
        </mxCell>
        <mxCell id="IdFYATCdx1y-YoX4mkcr-63" value="" style="edgeStyle=orthogonalEdgeStyle;rounded=0;html=1;jettySize=auto;orthogonalLoop=1;fontSize=11;endArrow=block;endFill=0;endSize=8;strokeWidth=1;shadow=0;labelBackgroundColor=none;entryX=0.5;entryY=1;entryDx=0;entryDy=0;exitX=0.5;exitY=0;exitDx=0;exitDy=0;" parent="WIyWlLk6GJQsqaUBKTNV-1" edge="1">
          <mxGeometry y="10" relative="1" as="geometry">
            <mxPoint as="offset" />
            <mxPoint x="700" y="459" as="sourcePoint" />
            <mxPoint x="700" y="419" as="targetPoint" />
            <Array as="points">
              <mxPoint x="700" y="439" />
              <mxPoint x="700" y="439" />
            </Array>
          </mxGeometry>
        </mxCell>
        <mxCell id="IdFYATCdx1y-YoX4mkcr-65" value="Train" style="text;html=1;align=center;verticalAlign=middle;resizable=0;points=[];autosize=1;strokeColor=none;fillColor=none;" parent="WIyWlLk6GJQsqaUBKTNV-1" vertex="1">
          <mxGeometry x="383" y="217" width="50" height="30" as="geometry" />
        </mxCell>
        <mxCell id="IdFYATCdx1y-YoX4mkcr-67" value="" style="rounded=0;html=1;jettySize=auto;orthogonalLoop=1;fontSize=11;endArrow=block;endFill=0;endSize=8;strokeWidth=1;shadow=0;labelBackgroundColor=none;edgeStyle=orthogonalEdgeStyle;exitX=0.5;exitY=1;exitDx=0;exitDy=0;entryX=0;entryY=0.5;entryDx=0;entryDy=0;" parent="WIyWlLk6GJQsqaUBKTNV-1" source="IdFYATCdx1y-YoX4mkcr-8" target="WIyWlLk6GJQsqaUBKTNV-11" edge="1">
          <mxGeometry relative="1" as="geometry">
            <mxPoint x="650" y="70" as="sourcePoint" />
            <mxPoint x="400" y="158" as="targetPoint" />
          </mxGeometry>
        </mxCell>
        <mxCell id="IdFYATCdx1y-YoX4mkcr-69" value="" style="rounded=0;html=1;jettySize=auto;orthogonalLoop=1;fontSize=11;endArrow=block;endFill=0;endSize=8;strokeWidth=1;shadow=0;labelBackgroundColor=none;edgeStyle=orthogonalEdgeStyle;entryX=0;entryY=0.5;entryDx=0;entryDy=0;exitX=1;exitY=0.75;exitDx=0;exitDy=0;" parent="WIyWlLk6GJQsqaUBKTNV-1" source="IdFYATCdx1y-YoX4mkcr-62" target="IdFYATCdx1y-YoX4mkcr-34" edge="1">
          <mxGeometry relative="1" as="geometry">
            <mxPoint x="859" y="441" as="sourcePoint" />
            <mxPoint x="859" y="491" as="targetPoint" />
          </mxGeometry>
        </mxCell>
        <mxCell id="HuhQMzRIHi1e0d12ndSK-0" value="Input" style="ellipse;whiteSpace=wrap;html=1;fillColor=#FBF9F3;" vertex="1" parent="WIyWlLk6GJQsqaUBKTNV-1">
          <mxGeometry x="170" y="40" width="100" height="70" as="geometry" />
        </mxCell>
        <mxCell id="HuhQMzRIHi1e0d12ndSK-1" value="" style="rounded=0;html=1;jettySize=auto;orthogonalLoop=1;fontSize=11;endArrow=block;endFill=0;endSize=8;strokeWidth=1;shadow=0;labelBackgroundColor=none;edgeStyle=orthogonalEdgeStyle;exitX=0.5;exitY=1;exitDx=0;exitDy=0;" edge="1" parent="WIyWlLk6GJQsqaUBKTNV-1" source="HuhQMzRIHi1e0d12ndSK-0">
          <mxGeometry relative="1" as="geometry">
            <mxPoint x="320" y="535" as="sourcePoint" />
            <mxPoint x="220" y="159" as="targetPoint" />
          </mxGeometry>
        </mxCell>
      </root>
    </mxGraphModel>
  </diagram>
  <diagram id="eTwh5DVSAJkI5GnhF79y" name="第 2 页">
    <mxGraphModel dx="954" dy="558" grid="1" gridSize="10" guides="1" tooltips="1" connect="1" arrows="1" fold="1" page="1" pageScale="1" pageWidth="827" pageHeight="1169" math="0" shadow="0">
      <root>
        <mxCell id="0" />
        <mxCell id="1" parent="0" />
        <mxCell id="Pl0lf6kAix-kMW7V-50d-89" value="" style="swimlane;startSize=0;swimlaneFillColor=#F7CD8A;opacity=40;strokeColor=none;" parent="1" vertex="1">
          <mxGeometry x="760" y="120" width="460" height="290" as="geometry" />
        </mxCell>
        <mxCell id="Pl0lf6kAix-kMW7V-50d-93" value="Asset Digitalization" style="text;html=1;align=center;verticalAlign=middle;resizable=0;points=[];autosize=1;strokeColor=none;fillColor=none;" parent="Pl0lf6kAix-kMW7V-50d-89" vertex="1">
          <mxGeometry x="330" y="255" width="120" height="30" as="geometry" />
        </mxCell>
        <mxCell id="Pl0lf6kAix-kMW7V-50d-72" value="" style="swimlane;startSize=0;fillColor=#B8E0D5;swimlaneFillColor=#B8E0D5;opacity=40;strokeColor=none;" parent="1" vertex="1">
          <mxGeometry x="500" y="100" width="220" height="340" as="geometry" />
        </mxCell>
        <mxCell id="Pl0lf6kAix-kMW7V-50d-73" value="" style="swimlane;startSize=0;swimlaneFillColor=#B8E0D5;opacity=60;strokeColor=none;" parent="Pl0lf6kAix-kMW7V-50d-72" vertex="1">
          <mxGeometry x="20" y="100" width="180" height="220" as="geometry" />
        </mxCell>
        <mxCell id="Pl0lf6kAix-kMW7V-50d-74" value="Standard Template" style="text;html=1;align=center;verticalAlign=middle;resizable=0;points=[];autosize=1;strokeColor=none;fillColor=none;" parent="Pl0lf6kAix-kMW7V-50d-73" vertex="1">
          <mxGeometry x="30" y="-7" width="120" height="30" as="geometry" />
        </mxCell>
        <mxCell id="Pl0lf6kAix-kMW7V-50d-75" value="Model" style="text;html=1;align=center;verticalAlign=middle;resizable=0;points=[];autosize=1;strokeColor=none;fillColor=none;" parent="Pl0lf6kAix-kMW7V-50d-72" vertex="1">
          <mxGeometry x="80" y="315" width="60" height="30" as="geometry" />
        </mxCell>
        <mxCell id="Pl0lf6kAix-kMW7V-50d-1" value="" style="swimlane;startSize=0;swimlaneFillColor=#F7CD8A;fillColor=none;opacity=40;strokeColor=none;" parent="1" vertex="1">
          <mxGeometry x="40" y="120" width="420" height="290" as="geometry" />
        </mxCell>
        <mxCell id="Pl0lf6kAix-kMW7V-50d-53" value="Portfolio" style="rounded=1;whiteSpace=wrap;html=1;fontSize=12;glass=0;strokeWidth=1;shadow=0;fillColor=#FFA700;" parent="Pl0lf6kAix-kMW7V-50d-1" vertex="1">
          <mxGeometry x="20" y="80" width="100" height="90" as="geometry" />
        </mxCell>
        <mxCell id="Pl0lf6kAix-kMW7V-50d-55" value="Asset Management" style="text;html=1;align=center;verticalAlign=middle;resizable=0;points=[];autosize=1;strokeColor=none;fillColor=none;" parent="Pl0lf6kAix-kMW7V-50d-1" vertex="1">
          <mxGeometry x="3" y="255" width="130" height="30" as="geometry" />
        </mxCell>
        <mxCell id="Pl0lf6kAix-kMW7V-50d-56" value="Bond" style="rounded=1;whiteSpace=wrap;html=1;fontSize=12;glass=0;strokeWidth=1;shadow=0;fillColor=#FFA700;" parent="Pl0lf6kAix-kMW7V-50d-1" vertex="1">
          <mxGeometry x="170" y="80" width="80" height="90" as="geometry" />
        </mxCell>
        <mxCell id="Pl0lf6kAix-kMW7V-50d-57" value="" style="edgeStyle=orthogonalEdgeStyle;rounded=0;html=1;jettySize=auto;orthogonalLoop=1;fontSize=11;endArrow=block;endFill=0;endSize=8;strokeWidth=1;shadow=0;labelBackgroundColor=none;exitX=1;exitY=0.5;exitDx=0;exitDy=0;entryX=0;entryY=0.5;entryDx=0;entryDy=0;" parent="Pl0lf6kAix-kMW7V-50d-1" source="Pl0lf6kAix-kMW7V-50d-53" target="Pl0lf6kAix-kMW7V-50d-56" edge="1">
          <mxGeometry y="10" relative="1" as="geometry">
            <mxPoint as="offset" />
            <mxPoint x="230" y="548" as="sourcePoint" />
            <mxPoint x="280" y="548" as="targetPoint" />
          </mxGeometry>
        </mxCell>
        <mxCell id="Pl0lf6kAix-kMW7V-50d-58" value="Pick" style="text;html=1;align=center;verticalAlign=middle;resizable=0;points=[];autosize=1;strokeColor=none;fillColor=none;" parent="Pl0lf6kAix-kMW7V-50d-1" vertex="1">
          <mxGeometry x="120" y="100" width="50" height="30" as="geometry" />
        </mxCell>
        <mxCell id="Pl0lf6kAix-kMW7V-50d-60" value="" style="edgeStyle=orthogonalEdgeStyle;rounded=0;html=1;jettySize=auto;orthogonalLoop=1;fontSize=11;endArrow=block;endFill=0;endSize=8;strokeWidth=1;shadow=0;labelBackgroundColor=none;exitX=1;exitY=0.5;exitDx=0;exitDy=0;entryX=0;entryY=0;entryDx=0;entryDy=35;entryPerimeter=0;" parent="Pl0lf6kAix-kMW7V-50d-1" source="Pl0lf6kAix-kMW7V-50d-56" target="Pl0lf6kAix-kMW7V-50d-59" edge="1">
          <mxGeometry y="10" relative="1" as="geometry">
            <mxPoint as="offset" />
            <mxPoint x="230" y="548" as="sourcePoint" />
            <mxPoint x="280" y="548" as="targetPoint" />
          </mxGeometry>
        </mxCell>
        <mxCell id="Pl0lf6kAix-kMW7V-50d-62" value="Log File" style="rounded=1;whiteSpace=wrap;html=1;fontSize=12;glass=0;strokeWidth=1;shadow=0;fillColor=#FFA700;" parent="Pl0lf6kAix-kMW7V-50d-1" vertex="1">
          <mxGeometry x="304" y="215" width="80" height="40" as="geometry" />
        </mxCell>
        <mxCell id="Pl0lf6kAix-kMW7V-50d-63" value="" style="rounded=0;html=1;jettySize=auto;orthogonalLoop=1;fontSize=11;endArrow=block;endFill=0;endSize=8;strokeWidth=1;shadow=0;labelBackgroundColor=none;edgeStyle=orthogonalEdgeStyle;exitX=0;exitY=0;exitDx=50;exitDy=70;exitPerimeter=0;entryX=0.5;entryY=0;entryDx=0;entryDy=0;" parent="Pl0lf6kAix-kMW7V-50d-1" source="Pl0lf6kAix-kMW7V-50d-59" target="Pl0lf6kAix-kMW7V-50d-62" edge="1">
          <mxGeometry relative="1" as="geometry">
            <mxPoint x="80" y="-10" as="sourcePoint" />
            <mxPoint x="80" y="90" as="targetPoint" />
          </mxGeometry>
        </mxCell>
        <mxCell id="Pl0lf6kAix-kMW7V-50d-64" value="Recording" style="text;html=1;align=center;verticalAlign=middle;resizable=0;points=[];autosize=1;strokeColor=none;fillColor=none;" parent="Pl0lf6kAix-kMW7V-50d-1" vertex="1">
          <mxGeometry x="339" y="170" width="80" height="30" as="geometry" />
        </mxCell>
        <mxCell id="Pl0lf6kAix-kMW7V-50d-59" value="Input" style="shape=cube;whiteSpace=wrap;html=1;boundedLbl=1;backgroundOutline=1;darkOpacity=0.05;darkOpacity2=0.1;fillColor=#FFFFFF;" parent="Pl0lf6kAix-kMW7V-50d-1" vertex="1">
          <mxGeometry x="294" y="90" width="80" height="70" as="geometry" />
        </mxCell>
        <mxCell id="Pl0lf6kAix-kMW7V-50d-52" value="Fund&lt;div&gt;Management&lt;/div&gt;" style="ellipse;whiteSpace=wrap;html=1;fillColor=#FBF9F3;" parent="1" vertex="1">
          <mxGeometry x="60" y="30" width="100" height="70" as="geometry" />
        </mxCell>
        <mxCell id="Pl0lf6kAix-kMW7V-50d-54" value="" style="rounded=0;html=1;jettySize=auto;orthogonalLoop=1;fontSize=11;endArrow=block;endFill=0;endSize=8;strokeWidth=1;shadow=0;labelBackgroundColor=none;edgeStyle=orthogonalEdgeStyle;exitX=0.5;exitY=1;exitDx=0;exitDy=0;" parent="1" source="Pl0lf6kAix-kMW7V-50d-52" edge="1">
          <mxGeometry relative="1" as="geometry">
            <mxPoint x="210" y="576" as="sourcePoint" />
            <mxPoint x="110" y="200" as="targetPoint" />
          </mxGeometry>
        </mxCell>
        <mxCell id="Pl0lf6kAix-kMW7V-50d-65" value="&lt;font color=&quot;#ffffff&quot;&gt;Llama 3&lt;/font&gt;" style="ellipse;whiteSpace=wrap;html=1;fillColor=#0E5447;" parent="1" vertex="1">
          <mxGeometry x="560" y="120" width="100" height="70" as="geometry" />
        </mxCell>
        <mxCell id="Pl0lf6kAix-kMW7V-50d-66" value="&lt;font color=&quot;#ffffff&quot;&gt;Attributions&lt;/font&gt;" style="ellipse;whiteSpace=wrap;html=1;fillColor=#0E5447;" parent="1" vertex="1">
          <mxGeometry x="560" y="220" width="100" height="70" as="geometry" />
        </mxCell>
        <mxCell id="Pl0lf6kAix-kMW7V-50d-67" value="&lt;font color=&quot;#ffffff&quot;&gt;Values&lt;/font&gt;" style="ellipse;whiteSpace=wrap;html=1;fillColor=#0E5447;" parent="1" vertex="1">
          <mxGeometry x="560" y="330" width="100" height="70" as="geometry" />
        </mxCell>
        <mxCell id="Pl0lf6kAix-kMW7V-50d-69" value="" style="edgeStyle=orthogonalEdgeStyle;rounded=0;html=1;jettySize=auto;orthogonalLoop=1;fontSize=11;endArrow=block;endFill=0;endSize=8;strokeWidth=1;shadow=0;labelBackgroundColor=none;exitX=0;exitY=0;exitDx=80;exitDy=45;entryX=0;entryY=0.5;entryDx=0;entryDy=0;exitPerimeter=0;" parent="1" source="Pl0lf6kAix-kMW7V-50d-59" target="Pl0lf6kAix-kMW7V-50d-66" edge="1">
          <mxGeometry y="10" relative="1" as="geometry">
            <mxPoint as="offset" />
            <mxPoint x="414" y="230" as="sourcePoint" />
            <mxPoint x="610" y="165" as="targetPoint" />
          </mxGeometry>
        </mxCell>
        <mxCell id="Pl0lf6kAix-kMW7V-50d-70" value="" style="edgeStyle=orthogonalEdgeStyle;rounded=0;html=1;jettySize=auto;orthogonalLoop=1;fontSize=11;endArrow=block;endFill=0;endSize=8;strokeWidth=1;shadow=0;labelBackgroundColor=none;entryX=0;entryY=0.5;entryDx=0;entryDy=0;exitX=1;exitY=1;exitDx=0;exitDy=0;exitPerimeter=0;" parent="1" source="Pl0lf6kAix-kMW7V-50d-59" target="Pl0lf6kAix-kMW7V-50d-67" edge="1">
          <mxGeometry y="10" relative="1" as="geometry">
            <mxPoint as="offset" />
            <mxPoint x="424" y="265" as="sourcePoint" />
            <mxPoint x="610" y="265" as="targetPoint" />
            <Array as="points">
              <mxPoint x="470" y="280" />
              <mxPoint x="470" y="365" />
            </Array>
          </mxGeometry>
        </mxCell>
        <mxCell id="Pl0lf6kAix-kMW7V-50d-71" value="" style="edgeStyle=orthogonalEdgeStyle;rounded=0;html=1;jettySize=auto;orthogonalLoop=1;fontSize=11;endArrow=block;endFill=0;endSize=8;strokeWidth=1;shadow=0;labelBackgroundColor=none;entryX=0;entryY=0.5;entryDx=0;entryDy=0;exitX=0;exitY=0;exitDx=80;exitDy=20;exitPerimeter=0;" parent="1" source="Pl0lf6kAix-kMW7V-50d-59" target="Pl0lf6kAix-kMW7V-50d-65" edge="1">
          <mxGeometry y="10" relative="1" as="geometry">
            <mxPoint as="offset" />
            <mxPoint x="424" y="290" as="sourcePoint" />
            <mxPoint x="610" y="375" as="targetPoint" />
            <Array as="points">
              <mxPoint x="470" y="230" />
              <mxPoint x="470" y="155" />
            </Array>
          </mxGeometry>
        </mxCell>
        <mxCell id="Pl0lf6kAix-kMW7V-50d-76" value="Json" style="shape=cube;whiteSpace=wrap;html=1;boundedLbl=1;backgroundOutline=1;darkOpacity=0.05;darkOpacity2=0.1;" parent="1" vertex="1">
          <mxGeometry x="810" y="230" width="80" height="70" as="geometry" />
        </mxCell>
        <mxCell id="Pl0lf6kAix-kMW7V-50d-77" value="" style="edgeStyle=orthogonalEdgeStyle;rounded=0;html=1;jettySize=auto;orthogonalLoop=1;fontSize=11;endArrow=block;endFill=0;endSize=8;strokeWidth=1;shadow=0;labelBackgroundColor=none;entryX=0;entryY=0;entryDx=0;entryDy=0;exitX=1;exitY=0.5;exitDx=0;exitDy=0;entryPerimeter=0;" parent="1" source="Pl0lf6kAix-kMW7V-50d-65" target="Pl0lf6kAix-kMW7V-50d-76" edge="1">
          <mxGeometry y="10" relative="1" as="geometry">
            <mxPoint as="offset" />
            <mxPoint x="424" y="240" as="sourcePoint" />
            <mxPoint x="570" y="165" as="targetPoint" />
            <Array as="points">
              <mxPoint x="750" y="155" />
              <mxPoint x="750" y="230" />
            </Array>
          </mxGeometry>
        </mxCell>
        <mxCell id="Pl0lf6kAix-kMW7V-50d-78" value="" style="edgeStyle=orthogonalEdgeStyle;rounded=0;html=1;jettySize=auto;orthogonalLoop=1;fontSize=11;endArrow=block;endFill=0;endSize=8;strokeWidth=1;shadow=0;labelBackgroundColor=none;exitX=1;exitY=0.5;exitDx=0;exitDy=0;entryX=0;entryY=0;entryDx=0;entryDy=25;entryPerimeter=0;" parent="1" source="Pl0lf6kAix-kMW7V-50d-66" target="Pl0lf6kAix-kMW7V-50d-76" edge="1">
          <mxGeometry y="10" relative="1" as="geometry">
            <mxPoint as="offset" />
            <mxPoint x="651" y="265" as="sourcePoint" />
            <mxPoint x="797" y="265" as="targetPoint" />
          </mxGeometry>
        </mxCell>
        <mxCell id="Pl0lf6kAix-kMW7V-50d-80" value="" style="edgeStyle=orthogonalEdgeStyle;rounded=0;html=1;jettySize=auto;orthogonalLoop=1;fontSize=11;endArrow=block;endFill=0;endSize=8;strokeWidth=1;shadow=0;labelBackgroundColor=none;entryX=0;entryY=0;entryDx=0;entryDy=50;exitX=1;exitY=0.5;exitDx=0;exitDy=0;entryPerimeter=0;" parent="1" source="Pl0lf6kAix-kMW7V-50d-67" target="Pl0lf6kAix-kMW7V-50d-76" edge="1">
          <mxGeometry y="10" relative="1" as="geometry">
            <mxPoint as="offset" />
            <mxPoint x="424" y="290" as="sourcePoint" />
            <mxPoint x="570" y="375" as="targetPoint" />
            <Array as="points">
              <mxPoint x="750" y="365" />
              <mxPoint x="750" y="280" />
            </Array>
          </mxGeometry>
        </mxCell>
        <mxCell id="Pl0lf6kAix-kMW7V-50d-81" value="Log File" style="rounded=1;whiteSpace=wrap;html=1;fontSize=12;glass=0;strokeWidth=1;shadow=0;fillColor=#FFA700;" parent="1" vertex="1">
          <mxGeometry x="820" y="340" width="80" height="40" as="geometry" />
        </mxCell>
        <mxCell id="Pl0lf6kAix-kMW7V-50d-82" value="" style="rounded=0;html=1;jettySize=auto;orthogonalLoop=1;fontSize=11;endArrow=block;endFill=0;endSize=8;strokeWidth=1;shadow=0;labelBackgroundColor=none;edgeStyle=orthogonalEdgeStyle;exitX=0;exitY=0;exitDx=50;exitDy=70;exitPerimeter=0;entryX=0.5;entryY=0;entryDx=0;entryDy=0;" parent="1" source="Pl0lf6kAix-kMW7V-50d-76" target="Pl0lf6kAix-kMW7V-50d-81" edge="1">
          <mxGeometry relative="1" as="geometry">
            <mxPoint x="860" y="300" as="sourcePoint" />
            <mxPoint x="596" y="230" as="targetPoint" />
            <Array as="points">
              <mxPoint x="860" y="340" />
              <mxPoint x="860" y="340" />
            </Array>
          </mxGeometry>
        </mxCell>
        <mxCell id="Pl0lf6kAix-kMW7V-50d-83" value="Recording" style="text;html=1;align=center;verticalAlign=middle;resizable=0;points=[];autosize=1;strokeColor=none;fillColor=none;" parent="1" vertex="1">
          <mxGeometry x="855" y="304" width="80" height="30" as="geometry" />
        </mxCell>
        <mxCell id="Pl0lf6kAix-kMW7V-50d-84" value="Token" style="rounded=1;whiteSpace=wrap;html=1;fontSize=12;glass=0;strokeWidth=1;shadow=0;fillColor=#FFA700;" parent="1" vertex="1">
          <mxGeometry x="940" y="205" width="80" height="90" as="geometry" />
        </mxCell>
        <mxCell id="Pl0lf6kAix-kMW7V-50d-85" value="" style="edgeStyle=orthogonalEdgeStyle;rounded=0;html=1;jettySize=auto;orthogonalLoop=1;fontSize=11;endArrow=block;endFill=0;endSize=8;strokeWidth=1;shadow=0;labelBackgroundColor=none;exitX=0;exitY=0;exitDx=80;exitDy=20;exitPerimeter=0;entryX=0;entryY=0.5;entryDx=0;entryDy=0;" parent="1" source="Pl0lf6kAix-kMW7V-50d-76" target="Pl0lf6kAix-kMW7V-50d-84" edge="1">
          <mxGeometry y="10" relative="1" as="geometry">
            <mxPoint as="offset" />
            <mxPoint x="900" y="255" as="sourcePoint" />
            <mxPoint x="950" y="255" as="targetPoint" />
          </mxGeometry>
        </mxCell>
        <mxCell id="Pl0lf6kAix-kMW7V-50d-86" value="Block" style="rounded=1;whiteSpace=wrap;html=1;fontSize=12;glass=0;strokeWidth=1;shadow=0;fillColor=#FFA700;" parent="1" vertex="1">
          <mxGeometry x="1100" y="205" width="100" height="90" as="geometry" />
        </mxCell>
        <mxCell id="Pl0lf6kAix-kMW7V-50d-87" value="" style="edgeStyle=orthogonalEdgeStyle;rounded=0;html=1;jettySize=auto;orthogonalLoop=1;fontSize=11;endArrow=block;endFill=0;endSize=8;strokeWidth=1;shadow=0;labelBackgroundColor=none;entryX=0;entryY=0.5;entryDx=0;entryDy=0;" parent="1" source="Pl0lf6kAix-kMW7V-50d-84" target="Pl0lf6kAix-kMW7V-50d-86" edge="1">
          <mxGeometry y="10" relative="1" as="geometry">
            <mxPoint as="offset" />
            <mxPoint x="1020" y="249" as="sourcePoint" />
            <mxPoint x="1070" y="249" as="targetPoint" />
          </mxGeometry>
        </mxCell>
        <mxCell id="Pl0lf6kAix-kMW7V-50d-88" value="Signature" style="text;html=1;align=center;verticalAlign=middle;resizable=0;points=[];autosize=1;strokeColor=none;fillColor=none;" parent="1" vertex="1">
          <mxGeometry x="1022" y="222" width="70" height="30" as="geometry" />
        </mxCell>
        <mxCell id="Pl0lf6kAix-kMW7V-50d-91" value="Customer" style="ellipse;whiteSpace=wrap;html=1;fillColor=#FBF9F3;" parent="1" vertex="1">
          <mxGeometry x="1100" y="35" width="100" height="70" as="geometry" />
        </mxCell>
        <mxCell id="Pl0lf6kAix-kMW7V-50d-92" value="" style="rounded=0;html=1;jettySize=auto;orthogonalLoop=1;fontSize=11;endArrow=block;endFill=0;endSize=8;strokeWidth=1;shadow=0;labelBackgroundColor=none;edgeStyle=orthogonalEdgeStyle;exitX=0.5;exitY=1;exitDx=0;exitDy=0;" parent="1" source="Pl0lf6kAix-kMW7V-50d-91" edge="1">
          <mxGeometry relative="1" as="geometry">
            <mxPoint x="1250" y="581" as="sourcePoint" />
            <mxPoint x="1150" y="205" as="targetPoint" />
          </mxGeometry>
        </mxCell>
      </root>
    </mxGraphModel>
  </diagram>
  <diagram id="loVe9nmeXCR3YVnUi3s2" name="第 3 页">
    <mxGraphModel dx="954" dy="558" grid="1" gridSize="10" guides="1" tooltips="1" connect="1" arrows="1" fold="1" page="1" pageScale="1" pageWidth="827" pageHeight="1169" math="0" shadow="0">
      <root>
        <mxCell id="0" />
        <mxCell id="1" parent="0" />
        <mxCell id="4v-wALUDQuPhLq3HDdl9-26" style="edgeStyle=orthogonalEdgeStyle;rounded=0;orthogonalLoop=1;jettySize=auto;html=1;exitX=0.5;exitY=0.5;exitDx=0;exitDy=0;exitPerimeter=0;entryX=0.5;entryY=0;entryDx=0;entryDy=0;curved=1;" parent="1" source="4v-wALUDQuPhLq3HDdl9-1" target="4v-wALUDQuPhLq3HDdl9-6" edge="1">
          <mxGeometry relative="1" as="geometry">
            <Array as="points">
              <mxPoint x="165" y="70" />
              <mxPoint x="460" y="70" />
            </Array>
          </mxGeometry>
        </mxCell>
        <mxCell id="4v-wALUDQuPhLq3HDdl9-1" value="Fund Manager" style="shape=umlActor;verticalLabelPosition=bottom;verticalAlign=top;html=1;outlineConnect=0;fillColor=#FF7540;" parent="1" vertex="1">
          <mxGeometry x="150" y="80" width="30" height="60" as="geometry" />
        </mxCell>
        <mxCell id="4v-wALUDQuPhLq3HDdl9-22" style="edgeStyle=orthogonalEdgeStyle;rounded=0;orthogonalLoop=1;jettySize=auto;html=1;exitX=0.5;exitY=0.5;exitDx=0;exitDy=0;exitPerimeter=0;entryX=0;entryY=0.5;entryDx=0;entryDy=0;elbow=vertical;curved=1;" parent="1" source="4v-wALUDQuPhLq3HDdl9-2" target="4v-wALUDQuPhLq3HDdl9-8" edge="1">
          <mxGeometry relative="1" as="geometry">
            <Array as="points">
              <mxPoint x="165" y="270" />
            </Array>
          </mxGeometry>
        </mxCell>
        <mxCell id="4v-wALUDQuPhLq3HDdl9-23" style="edgeStyle=orthogonalEdgeStyle;rounded=0;orthogonalLoop=1;jettySize=auto;html=1;exitX=0.5;exitY=0.5;exitDx=0;exitDy=0;exitPerimeter=0;entryX=0.5;entryY=0;entryDx=0;entryDy=0;curved=1;" parent="1" source="4v-wALUDQuPhLq3HDdl9-2" target="4v-wALUDQuPhLq3HDdl9-9" edge="1">
          <mxGeometry relative="1" as="geometry">
            <Array as="points">
              <mxPoint x="165" y="230" />
              <mxPoint x="460" y="230" />
            </Array>
          </mxGeometry>
        </mxCell>
        <mxCell id="4v-wALUDQuPhLq3HDdl9-24" style="edgeStyle=orthogonalEdgeStyle;rounded=0;orthogonalLoop=1;jettySize=auto;html=1;exitX=0.5;exitY=0.5;exitDx=0;exitDy=0;exitPerimeter=0;entryX=0.5;entryY=0;entryDx=0;entryDy=0;curved=1;" parent="1" source="4v-wALUDQuPhLq3HDdl9-2" target="4v-wALUDQuPhLq3HDdl9-10" edge="1">
          <mxGeometry relative="1" as="geometry">
            <Array as="points">
              <mxPoint x="165" y="210" />
              <mxPoint x="620" y="210" />
            </Array>
          </mxGeometry>
        </mxCell>
        <mxCell id="4v-wALUDQuPhLq3HDdl9-25" style="edgeStyle=orthogonalEdgeStyle;rounded=0;orthogonalLoop=1;jettySize=auto;html=1;exitX=0.5;exitY=0.5;exitDx=0;exitDy=0;exitPerimeter=0;entryX=0;entryY=0.5;entryDx=0;entryDy=0;curved=1;" parent="1" source="4v-wALUDQuPhLq3HDdl9-2" target="4v-wALUDQuPhLq3HDdl9-7" edge="1">
          <mxGeometry relative="1" as="geometry">
            <Array as="points">
              <mxPoint x="165" y="180" />
            </Array>
          </mxGeometry>
        </mxCell>
        <mxCell id="ELowJcIqtox_T-XetRFM-3" style="edgeStyle=orthogonalEdgeStyle;rounded=0;orthogonalLoop=1;jettySize=auto;html=1;exitX=0.5;exitY=0.5;exitDx=0;exitDy=0;exitPerimeter=0;entryX=0.5;entryY=0;entryDx=0;entryDy=0;curved=1;" edge="1" parent="1" source="4v-wALUDQuPhLq3HDdl9-2" target="ELowJcIqtox_T-XetRFM-1">
          <mxGeometry relative="1" as="geometry">
            <Array as="points">
              <mxPoint x="165" y="200" />
              <mxPoint x="780" y="200" />
            </Array>
          </mxGeometry>
        </mxCell>
        <mxCell id="4v-wALUDQuPhLq3HDdl9-2" value="Data Scientist" style="shape=umlActor;verticalLabelPosition=bottom;verticalAlign=top;html=1;outlineConnect=0;fillColor=#FF7540;" parent="1" vertex="1">
          <mxGeometry x="150" y="230" width="30" height="60" as="geometry" />
        </mxCell>
        <mxCell id="4v-wALUDQuPhLq3HDdl9-20" style="edgeStyle=orthogonalEdgeStyle;rounded=0;orthogonalLoop=1;jettySize=auto;html=1;exitX=0.5;exitY=0.5;exitDx=0;exitDy=0;exitPerimeter=0;curved=1;" parent="1" source="4v-wALUDQuPhLq3HDdl9-3" edge="1">
          <mxGeometry relative="1" as="geometry">
            <mxPoint x="780" y="360" as="targetPoint" />
            <Array as="points">
              <mxPoint x="165" y="460" />
              <mxPoint x="781" y="460" />
            </Array>
          </mxGeometry>
        </mxCell>
        <mxCell id="4v-wALUDQuPhLq3HDdl9-21" style="edgeStyle=orthogonalEdgeStyle;rounded=0;orthogonalLoop=1;jettySize=auto;html=1;exitX=0.5;exitY=0.5;exitDx=0;exitDy=0;exitPerimeter=0;entryX=0;entryY=0.5;entryDx=0;entryDy=0;curved=1;" parent="1" source="4v-wALUDQuPhLq3HDdl9-3" target="4v-wALUDQuPhLq3HDdl9-14" edge="1">
          <mxGeometry relative="1" as="geometry" />
        </mxCell>
        <mxCell id="4v-wALUDQuPhLq3HDdl9-3" value="Customer" style="shape=umlActor;verticalLabelPosition=bottom;verticalAlign=top;html=1;outlineConnect=0;fillColor=#FF7540;" parent="1" vertex="1">
          <mxGeometry x="150" y="380" width="30" height="60" as="geometry" />
        </mxCell>
        <mxCell id="4v-wALUDQuPhLq3HDdl9-6" value="Monitor Issuance" style="rounded=1;whiteSpace=wrap;html=1;fillColor=#FFA700;" parent="1" vertex="1">
          <mxGeometry x="400" y="110" width="120" height="40" as="geometry" />
        </mxCell>
        <mxCell id="4v-wALUDQuPhLq3HDdl9-15" style="edgeStyle=orthogonalEdgeStyle;rounded=0;orthogonalLoop=1;jettySize=auto;html=1;exitX=1;exitY=0.5;exitDx=0;exitDy=0;entryX=0;entryY=0.5;entryDx=0;entryDy=0;curved=1;" parent="1" source="4v-wALUDQuPhLq3HDdl9-7" target="4v-wALUDQuPhLq3HDdl9-6" edge="1">
          <mxGeometry relative="1" as="geometry" />
        </mxCell>
        <mxCell id="4v-wALUDQuPhLq3HDdl9-7" value="Develop Template" style="rounded=1;whiteSpace=wrap;html=1;fillColor=#FFA700;" parent="1" vertex="1">
          <mxGeometry x="240" y="160" width="120" height="40" as="geometry" />
        </mxCell>
        <mxCell id="4v-wALUDQuPhLq3HDdl9-16" style="edgeStyle=orthogonalEdgeStyle;rounded=0;orthogonalLoop=1;jettySize=auto;html=1;exitX=1;exitY=0.5;exitDx=0;exitDy=0;entryX=0;entryY=0.5;entryDx=0;entryDy=0;curved=1;" parent="1" source="4v-wALUDQuPhLq3HDdl9-8" target="4v-wALUDQuPhLq3HDdl9-9" edge="1">
          <mxGeometry relative="1" as="geometry">
            <mxPoint x="390" y="340" as="targetPoint" />
          </mxGeometry>
        </mxCell>
        <mxCell id="4v-wALUDQuPhLq3HDdl9-8" value="Wrangle Data" style="rounded=1;whiteSpace=wrap;html=1;fillColor=#B8E0D5;" parent="1" vertex="1">
          <mxGeometry x="240" y="250" width="120" height="40" as="geometry" />
        </mxCell>
        <mxCell id="4v-wALUDQuPhLq3HDdl9-17" style="edgeStyle=orthogonalEdgeStyle;rounded=0;orthogonalLoop=1;jettySize=auto;html=1;exitX=1;exitY=0.5;exitDx=0;exitDy=0;entryX=0;entryY=0.5;entryDx=0;entryDy=0;curved=1;" parent="1" source="4v-wALUDQuPhLq3HDdl9-9" target="4v-wALUDQuPhLq3HDdl9-10" edge="1">
          <mxGeometry relative="1" as="geometry" />
        </mxCell>
        <mxCell id="4v-wALUDQuPhLq3HDdl9-9" value="Train NLP Model" style="rounded=1;whiteSpace=wrap;html=1;fillColor=#B8E0D5;" parent="1" vertex="1">
          <mxGeometry x="400" y="310" width="120" height="40" as="geometry" />
        </mxCell>
        <mxCell id="4v-wALUDQuPhLq3HDdl9-18" style="edgeStyle=orthogonalEdgeStyle;rounded=0;orthogonalLoop=1;jettySize=auto;html=1;exitX=0.5;exitY=1;exitDx=0;exitDy=0;entryX=0.5;entryY=0;entryDx=0;entryDy=0;" parent="1" source="4v-wALUDQuPhLq3HDdl9-10" target="4v-wALUDQuPhLq3HDdl9-14" edge="1">
          <mxGeometry relative="1" as="geometry" />
        </mxCell>
        <mxCell id="4v-wALUDQuPhLq3HDdl9-10" value="Standardize Data" style="rounded=1;whiteSpace=wrap;html=1;fillColor=#B8E0D5;" parent="1" vertex="1">
          <mxGeometry x="560" y="230" width="120" height="40" as="geometry" />
        </mxCell>
        <mxCell id="ELowJcIqtox_T-XetRFM-2" style="edgeStyle=orthogonalEdgeStyle;rounded=0;orthogonalLoop=1;jettySize=auto;html=1;exitX=0.5;exitY=0;exitDx=0;exitDy=0;entryX=0.5;entryY=1;entryDx=0;entryDy=0;" edge="1" parent="1" source="4v-wALUDQuPhLq3HDdl9-13" target="ELowJcIqtox_T-XetRFM-1">
          <mxGeometry relative="1" as="geometry" />
        </mxCell>
        <mxCell id="4v-wALUDQuPhLq3HDdl9-13" value="Enhance Digitization" style="rounded=1;whiteSpace=wrap;html=1;fillColor=#B8E0D5;" parent="1" vertex="1">
          <mxGeometry x="720" y="310" width="120" height="40" as="geometry" />
        </mxCell>
        <mxCell id="4v-wALUDQuPhLq3HDdl9-19" style="edgeStyle=orthogonalEdgeStyle;rounded=0;orthogonalLoop=1;jettySize=auto;html=1;exitX=1;exitY=0.5;exitDx=0;exitDy=0;entryX=0.5;entryY=1;entryDx=0;entryDy=0;curved=1;" parent="1" source="4v-wALUDQuPhLq3HDdl9-14" target="4v-wALUDQuPhLq3HDdl9-13" edge="1">
          <mxGeometry relative="1" as="geometry" />
        </mxCell>
        <mxCell id="4v-wALUDQuPhLq3HDdl9-14" value="Expand Recognition" style="rounded=1;whiteSpace=wrap;html=1;fillColor=#B8E0D5;" parent="1" vertex="1">
          <mxGeometry x="560" y="390" width="120" height="40" as="geometry" />
        </mxCell>
        <mxCell id="ELowJcIqtox_T-XetRFM-1" value="Token Factory" style="rounded=1;whiteSpace=wrap;html=1;fillColor=#FF7540;" vertex="1" parent="1">
          <mxGeometry x="720" y="220" width="120" height="40" as="geometry" />
        </mxCell>
      </root>
    </mxGraphModel>
  </diagram>
</mxfile>
